<svg width="18" height="18" viewBox="0 0 18 18" fill="none" xmlns="http://www.w3.org/2000/svg">
<path d="M8.99993 3.2223L2.45468 9.5913C2.40193 9.64374 2.33931 9.68519 2.27044 9.71327C2.20156 9.74134 2.12781 9.75548 2.05343 9.75486C1.97906 9.75425 1.90555 9.73888 1.83715 9.70967C1.76875 9.68045 1.70683 9.63796 1.65496 9.58466C1.60309 9.53135 1.56231 9.46829 1.53497 9.39912C1.50764 9.32994 1.49429 9.25604 1.49571 9.18168C1.49712 9.10731 1.51327 9.03397 1.54322 8.96589C1.57317 8.89781 1.61632 8.83634 1.67018 8.78505L8.60768 2.03505C8.71269 1.93288 8.85342 1.87572 8.99993 1.87572C9.14644 1.87572 9.28717 1.93288 9.39218 2.03505L16.3297 8.78505C16.3835 8.83634 16.4267 8.89781 16.4566 8.96589C16.4866 9.03397 16.5027 9.10731 16.5042 9.18168C16.5056 9.25604 16.4922 9.32994 16.4649 9.39912C16.4376 9.46829 16.3968 9.53135 16.3449 9.58466C16.293 9.63796 16.2311 9.68045 16.1627 9.70967C16.0943 9.73888 16.0208 9.75425 15.9464 9.75486C15.8721 9.75548 15.7983 9.74134 15.7294 9.71327C15.6606 9.68519 15.5979 9.64374 15.5452 9.5913L8.99993 3.22155V3.2223Z" fill="#333333"/>
</svg>
