<svg width="40" height="40" viewBox="0 0 40 40" fill="none" xmlns="http://www.w3.org/2000/svg">
<rect width="40" height="40" rx="8" fill="#7805A7"/>
<path d="M10.8502 10C10.6247 10 10.4085 10.0878 10.249 10.2441C10.0896 10.4004 10 10.6123 10 10.8333C10 11.0543 10.0896 11.2663 10.249 11.4226C10.4085 11.5789 10.6247 11.6667 10.8502 11.6667H11.2686C11.4532 11.667 11.6327 11.7262 11.7799 11.8353C11.9272 11.9445 12.0342 12.0976 12.0848 12.2717L14.7818 21.5217C14.9343 22.0437 15.2561 22.5028 15.6985 22.8297C16.1409 23.1565 16.6798 23.3333 17.2339 23.3333H25.0034C25.5132 23.3334 26.0114 23.1837 26.4337 22.9036C26.8559 22.6234 27.1828 22.2257 27.3721 21.7617L29.8786 15.6183C29.9817 15.3655 30.02 15.0919 29.9902 14.8212C29.9604 14.5506 29.8634 14.2912 29.7077 14.0658C29.552 13.8403 29.3424 13.6557 29.0971 13.528C28.8518 13.4004 28.5783 13.3335 28.3006 13.3333H14.1628L13.719 11.8133C13.5668 11.2913 13.2454 10.832 12.8033 10.5048C12.3612 10.1777 11.8225 10.0005 11.2686 10H10.8502ZM16.4176 21.0617L14.6491 15H28.2989L25.7924 21.1433C25.7292 21.2978 25.6203 21.4302 25.4797 21.5235C25.3391 21.6168 25.1732 21.6666 25.0034 21.6667H17.2339C17.0492 21.6664 16.8697 21.6071 16.7225 21.498C16.5752 21.3889 16.4682 21.2357 16.4176 21.0617ZM17.6522 30C17.9871 30 18.3188 29.9353 18.6283 29.8097C18.9378 29.6841 19.2189 29.4999 19.4558 29.2678C19.6927 29.0356 19.8805 28.76 20.0087 28.4567C20.1369 28.1534 20.2029 27.8283 20.2029 27.5C20.2029 27.1717 20.1369 26.8466 20.0087 26.5433C19.8805 26.24 19.6927 25.9644 19.4558 25.7322C19.2189 25.5001 18.9378 25.3159 18.6283 25.1903C18.3188 25.0647 17.9871 25 17.6522 25C16.9757 25 16.3269 25.2634 15.8485 25.7322C15.3702 26.2011 15.1014 26.837 15.1014 27.5C15.1014 28.163 15.3702 28.7989 15.8485 29.2678C16.3269 29.7366 16.9757 30 17.6522 30ZM17.6522 28.3333C17.4267 28.3333 17.2104 28.2455 17.051 28.0893C16.8915 27.933 16.8019 27.721 16.8019 27.5C16.8019 27.279 16.8915 27.067 17.051 26.9107C17.2104 26.7545 17.4267 26.6667 17.6522 26.6667C17.8777 26.6667 18.0939 26.7545 18.2534 26.9107C18.4128 27.067 18.5024 27.279 18.5024 27.5C18.5024 27.721 18.4128 27.933 18.2534 28.0893C18.0939 28.2455 17.8777 28.3333 17.6522 28.3333ZM24.4541 30C24.7891 30 25.1208 29.9353 25.4302 29.8097C25.7397 29.6841 26.0209 29.4999 26.2577 29.2678C26.4946 29.0356 26.6825 28.76 26.8107 28.4567C26.9388 28.1534 27.0048 27.8283 27.0048 27.5C27.0048 27.1717 26.9388 26.8466 26.8107 26.5433C26.6825 26.24 26.4946 25.9644 26.2577 25.7322C26.0209 25.5001 25.7397 25.3159 25.4302 25.1903C25.1208 25.0647 24.7891 25 24.4541 25C23.7776 25 23.1288 25.2634 22.6505 25.7322C22.1721 26.2011 21.9034 26.837 21.9034 27.5C21.9034 28.163 22.1721 28.7989 22.6505 29.2678C23.1288 29.7366 23.7776 30 24.4541 30ZM24.4541 28.3333C24.2286 28.3333 24.0123 28.2455 23.8529 28.0893C23.6934 27.933 23.6039 27.721 23.6039 27.5C23.6039 27.279 23.6934 27.067 23.8529 26.9107C24.0123 26.7545 24.2286 26.6667 24.4541 26.6667C24.6796 26.6667 24.8959 26.7545 25.0553 26.9107C25.2148 27.067 25.3043 27.279 25.3043 27.5C25.3043 27.721 25.2148 27.933 25.0553 28.0893C24.8959 28.2455 24.6796 28.3333 24.4541 28.3333Z" fill="#FFCC00"/>
</svg>
