<svg width="24" height="24" viewBox="0 0 24 24" fill="none" xmlns="http://www.w3.org/2000/svg">
<path d="M11.0659 8.00392L11.2499 7.99892H18.7499C19.5799 7.99885 20.3784 8.31632 20.9818 8.88623C21.5852 9.45614 21.9477 10.2353 21.9949 11.0639L21.9999 11.2489V18.7489C22 19.5791 21.6824 20.3778 21.1122 20.9812C20.5421 21.5846 19.7627 21.9469 18.9339 21.9939L18.7499 21.9989H11.2499C10.4198 21.999 9.62109 21.6814 9.01769 21.1112C8.41429 20.5411 8.05192 19.7617 8.00492 18.9329L7.99992 18.7499V11.2499C7.99987 10.4198 8.31748 9.62109 8.88759 9.01769C9.45771 8.41429 10.2371 8.05192 11.0659 8.00492V8.00392ZM18.7499 9.49892H11.2499C10.8107 9.49894 10.3876 9.66409 10.0645 9.9616C9.74146 10.2591 9.54206 10.6672 9.50592 11.1049L9.49992 11.2489V18.7489C9.49996 19.1883 9.66525 19.6115 9.96297 19.9346C10.2607 20.2577 10.669 20.457 11.1069 20.4929L11.2499 20.4989H18.7499C19.1893 20.4989 19.6125 20.3336 19.9356 20.0359C20.2587 19.7382 20.458 19.3298 20.4939 18.8919L20.4999 18.7489V11.2489C20.4999 10.7848 20.3155 10.3397 19.9874 10.0115C19.6592 9.6833 19.2141 9.49892 18.7499 9.49892ZM14.9999 10.9999C15.1988 10.9999 15.3896 11.0789 15.5303 11.2196C15.6709 11.3602 15.7499 11.551 15.7499 11.7499V14.2479H18.2499C18.4488 14.2479 18.6396 14.3269 18.7803 14.4676C18.9209 14.6082 18.9999 14.799 18.9999 14.9979C18.9999 15.1968 18.9209 15.3876 18.7803 15.5283C18.6396 15.6689 18.4488 15.7479 18.2499 15.7479H15.7499V18.2499C15.7499 18.4488 15.6709 18.6396 15.5303 18.7803C15.3896 18.9209 15.1988 18.9999 14.9999 18.9999C14.801 18.9999 14.6102 18.9209 14.4696 18.7803C14.3289 18.6396 14.2499 18.4488 14.2499 18.2499V15.7479H11.7499C11.551 15.7479 11.3602 15.6689 11.2196 15.5283C11.0789 15.3876 10.9999 15.1968 10.9999 14.9979C10.9999 14.799 11.0789 14.6082 11.2196 14.4676C11.3602 14.3269 11.551 14.2479 11.7499 14.2479H14.2499V11.7499C14.2499 11.551 14.3289 11.3602 14.4696 11.2196C14.6102 11.0789 14.801 10.9999 14.9999 10.9999ZM15.5819 4.23292L15.6339 4.40992L16.3269 6.99792H14.7739L14.1859 4.79792C14.1265 4.57581 14.0239 4.36759 13.884 4.18515C13.7441 4.00271 13.5696 3.84963 13.3704 3.73466C13.1713 3.61969 12.9515 3.54508 12.7236 3.5151C12.4956 3.48512 12.264 3.50035 12.0419 3.55992L4.79792 5.50192C4.37505 5.61532 4.01004 5.8831 3.77493 6.25243C3.53982 6.62176 3.45169 7.0658 3.52792 7.49692L3.55992 7.64492L5.50192 14.8889C5.59301 15.2293 5.78474 15.5343 6.05202 15.7639C6.3193 15.9936 6.64968 16.1372 6.99992 16.1759V17.6819C6.34974 17.6432 5.72618 17.4101 5.21002 17.0128C4.69385 16.6156 4.30886 16.0725 4.10492 15.4539L4.05292 15.2779L2.11192 8.03292C1.89692 7.2313 1.99676 6.37779 2.39095 5.64742C2.78514 4.91705 3.44382 4.36516 4.23192 4.10492L4.40992 4.05292L11.6539 2.11192C12.4555 1.89692 13.3091 1.99676 14.0394 2.39095C14.7698 2.78514 15.3217 3.44382 15.5819 4.23192V4.23292Z" fill="white"/>
</svg>
