<svg width="40" height="40" viewBox="0 0 40 40" fill="none" xmlns="http://www.w3.org/2000/svg">
<rect width="40" height="40" rx="8" fill="#7805A7"/>
<path d="M20.4762 19.2857H26.8714C27.1952 18.9552 27.6143 18.719 28.0857 18.621C27.976 16.2977 26.9759 14.106 25.2929 12.5007C23.61 10.8954 21.3734 9.99986 19.0476 10C16.648 10 14.3467 10.9532 12.65 12.65C10.9532 14.3467 10 16.648 10 19.0476C10 23.8848 13.7962 27.8352 18.5714 28.0829V26.6524C16.6153 26.5313 14.7811 25.6612 13.45 24.2228C12.1189 22.7843 11.3933 20.8883 11.4239 18.9287C11.4546 16.9691 12.2392 15.0967 13.6146 13.7006C14.9901 12.3045 16.8506 11.4922 18.8095 11.4324V17.619C18.8095 18.539 19.5562 19.2857 20.4762 19.2857ZM20.4762 17.8571C20.413 17.8571 20.3525 17.8321 20.3078 17.7874C20.2632 17.7428 20.2381 17.6822 20.2381 17.619V11.521C21.8278 11.7731 23.297 12.5219 24.4352 13.6601C25.5734 14.7982 26.3221 16.2674 26.5743 17.8571H20.4762ZM28.5714 19.5238C28.1925 19.5238 27.8292 19.6743 27.5613 19.9422C27.2934 20.2101 27.1429 20.5735 27.1429 20.9524V28.5714C27.1429 28.9503 27.2934 29.3137 27.5613 29.5816C27.8292 29.8495 28.1925 30 28.5714 30C28.9503 30 29.3137 29.8495 29.5816 29.5816C29.8495 29.3137 30 28.9503 30 28.5714V20.9524C30 20.5735 29.8495 20.2101 29.5816 19.9422C29.3137 19.6743 28.9503 19.5238 28.5714 19.5238ZM20.9524 25.2381C20.5735 25.2381 20.2101 25.3886 19.9422 25.6565C19.6743 25.9244 19.5238 26.2878 19.5238 26.6667V28.5714C19.5238 28.9503 19.6743 29.3137 19.9422 29.5816C20.2101 29.8495 20.5735 30 20.9524 30C21.3313 30 21.6946 29.8495 21.9625 29.5816C22.2304 29.3137 22.381 28.9503 22.381 28.5714V26.6667C22.381 26.2878 22.2304 25.9244 21.9625 25.6565C21.6946 25.3886 21.3313 25.2381 20.9524 25.2381ZM23.3333 23.8095C23.3333 23.4306 23.4838 23.0673 23.7518 22.7994C24.0197 22.5315 24.383 22.381 24.7619 22.381C25.1408 22.381 25.5041 22.5315 25.7721 22.7994C26.04 23.0673 26.1905 23.4306 26.1905 23.8095V28.5714C26.1905 28.9503 26.04 29.3137 25.7721 29.5816C25.5041 29.8495 25.1408 30 24.7619 30C24.383 30 24.0197 29.8495 23.7518 29.5816C23.4838 29.3137 23.3333 28.9503 23.3333 28.5714V23.8095Z" fill="#FFCC00"/>
</svg>
