<svg width="41" height="41" viewBox="0 0 41 41" fill="none" xmlns="http://www.w3.org/2000/svg">
<rect width="41" height="40.5016" rx="8" fill="#7805A7"/>
<path d="M11.5 19.5H20.5V21H11.5V19.5ZM10 15.75H17.5V17.25H10V15.75Z" fill="#FFCC00"/>
<path d="M30.9393 19.9545L28.6893 14.7045C28.6315 14.5696 28.5354 14.4545 28.4129 14.3737C28.2903 14.293 28.1468 14.2499 28 14.25H25.75V12.75C25.75 12.5511 25.671 12.3603 25.5303 12.2197C25.3897 12.079 25.1989 12 25 12H13V13.5H24.25V22.917C23.9083 23.1154 23.6092 23.3796 23.37 23.6942C23.1308 24.0088 22.9563 24.3676 22.8565 24.75H18.1435C17.961 24.043 17.5268 23.4269 16.9225 23.017C16.3182 22.6072 15.5851 22.4319 14.8608 22.5239C14.1364 22.6159 13.4705 22.9689 12.9878 23.5168C12.5051 24.0647 12.2388 24.7698 12.2388 25.5C12.2388 26.2302 12.5051 26.9353 12.9878 27.4832C13.4705 28.0311 14.1364 28.3841 14.8608 28.4761C15.5851 28.5681 16.3182 28.3928 16.9225 27.983C17.5268 27.5731 17.961 26.957 18.1435 26.25H22.8565C23.0197 26.8937 23.3928 27.4646 23.9168 27.8724C24.4409 28.2802 25.086 28.5016 25.75 28.5016C26.414 28.5016 27.0591 28.2802 27.5832 27.8724C28.1072 27.4646 28.4804 26.8937 28.6435 26.25H30.25C30.4489 26.25 30.6397 26.171 30.7803 26.0303C30.921 25.8897 31 25.6989 31 25.5V20.25C31 20.1484 30.9794 20.0479 30.9393 19.9545ZM15.25 27C14.9533 27 14.6633 26.912 14.4167 26.7472C14.17 26.5824 13.9777 26.3481 13.8642 26.074C13.7507 25.7999 13.721 25.4983 13.7788 25.2074C13.8367 24.9164 13.9796 24.6491 14.1893 24.4393C14.3991 24.2296 14.6664 24.0867 14.9574 24.0288C15.2483 23.9709 15.5499 24.0006 15.824 24.1142C16.0981 24.2277 16.3324 24.42 16.4972 24.6666C16.662 24.9133 16.75 25.2033 16.75 25.5C16.7496 25.8977 16.5914 26.279 16.3102 26.5602C16.029 26.8414 15.6477 26.9996 15.25 27ZM25.75 15.75H27.505L29.113 19.5H25.75V15.75ZM25.75 27C25.4533 27 25.1633 26.912 24.9167 26.7472C24.67 26.5824 24.4777 26.3481 24.3642 26.074C24.2507 25.7999 24.221 25.4983 24.2788 25.2074C24.3367 24.9164 24.4796 24.6491 24.6893 24.4393C24.8991 24.2296 25.1664 24.0867 25.4574 24.0288C25.7483 23.9709 26.0499 24.0006 26.324 24.1142C26.5981 24.2277 26.8324 24.42 26.9972 24.6666C27.162 24.9133 27.25 25.2033 27.25 25.5C27.2496 25.8977 27.0914 26.279 26.8102 26.5602C26.529 26.8414 26.1477 26.9996 25.75 27ZM29.5 24.75H28.6435C28.4783 24.1076 28.1046 23.5381 27.5809 23.1309C27.0573 22.7238 26.4133 22.5018 25.75 22.5V21H29.5V24.75Z" fill="#FFCC00"/>
</svg>
