<svg width="40" height="41" viewBox="0 0 40 41" fill="none" xmlns="http://www.w3.org/2000/svg">
<rect width="39.5" height="41" rx="8" fill="#7805A7"/>
<path d="M21.25 22.75C21.25 22.5511 21.329 22.3603 21.4697 22.2197C21.6103 22.079 21.8011 22 22 22H25C25.1989 22 25.3897 22.079 25.5303 22.2197C25.671 22.3603 25.75 22.5511 25.75 22.75V25.75C25.75 25.9489 25.671 26.1397 25.5303 26.2803C25.3897 26.421 25.1989 26.5 25 26.5H22C21.8011 26.5 21.6103 26.421 21.4697 26.2803C21.329 26.1397 21.25 25.9489 21.25 25.75V22.75ZM22.75 25H24.25V23.5H22.75V25ZM14.032 10.165L10.282 13.165C10.033 13.363 10 13.705 10 14.005V16.75C10 17.5945 10.279 18.373 10.75 19V30.25C10.75 30.4489 10.829 30.6397 10.9697 30.7803C11.1103 30.921 11.3011 31 11.5 31H28C28.1989 31 28.3897 30.921 28.5303 30.7803C28.671 30.6397 28.75 30.4489 28.75 30.25V19C29.221 18.373 29.5 17.5945 29.5 16.75V13.999C29.5 13.699 29.467 13.363 29.218 13.165L25.468 10.165C25.3352 10.0585 25.1702 10.0003 25 10H14.5C14.3298 10.0003 14.1648 10.0585 14.032 10.165ZM16 14.5V16.75C16 17.3467 15.7629 17.919 15.341 18.341C14.919 18.7629 14.3467 19 13.75 19C13.1533 19 12.581 18.7629 12.159 18.341C11.7371 17.919 11.5 17.3467 11.5 16.75V14.5H16ZM22 14.5V16.75C22 17.3467 21.7629 17.919 21.341 18.341C20.919 18.7629 20.3467 19 19.75 19C19.1533 19 18.581 18.7629 18.159 18.341C17.7371 17.919 17.5 17.3467 17.5 16.75V14.5H22ZM28 14.5V16.75C28 17.3467 27.7629 17.919 27.341 18.341C26.919 18.7629 26.3467 19 25.75 19C25.1533 19 24.581 18.7629 24.159 18.341C23.7371 17.919 23.5 17.3467 23.5 16.75V14.5H28ZM16.7935 11.5L16.231 13H12.8875L14.7625 11.5H16.795H16.7935ZM17.833 13L18.3955 11.5H21.085L21.5845 13H17.833ZM22.666 11.5H24.736L26.611 13H23.1655L22.666 11.5ZM27.25 20.188V29.5H19.75V22.75C19.75 22.5511 19.671 22.3603 19.5303 22.2197C19.3897 22.079 19.1989 22 19 22H14.5C14.3011 22 14.1103 22.079 13.9697 22.2197C13.829 22.3603 13.75 22.5511 13.75 22.75V29.5H12.25V20.188C13.0241 20.5268 13.89 20.5939 14.707 20.3782C15.524 20.1625 16.244 19.6768 16.75 19C17.434 19.9105 18.523 20.5 19.75 20.5C20.977 20.5 22.066 19.9105 22.75 19C23.256 19.6768 23.976 20.1625 24.793 20.3782C25.61 20.5939 26.4759 20.5268 27.25 20.188ZM18.25 29.5H15.25V23.5H18.25V29.5Z" fill="white"/>
</svg>
