<svg width="40" height="40" viewBox="0 0 40 40" fill="none" xmlns="http://www.w3.org/2000/svg">
<rect width="40" height="40" rx="8" fill="#080016"/>
<path d="M15.0001 20.0007C15.0001 20.4427 14.8245 20.8666 14.5119 21.1792C14.1994 21.4917 13.7754 21.6673 13.3334 21.6673C12.8914 21.6673 12.4675 21.4917 12.1549 21.1792C11.8423 20.8666 11.6667 20.4427 11.6667 20.0007C11.6667 19.5586 11.8423 19.1347 12.1549 18.8221C12.4675 18.5096 12.8914 18.334 13.3334 18.334C13.7754 18.334 14.1994 18.5096 14.5119 18.8221C14.8245 19.1347 15.0001 19.5586 15.0001 20.0007ZM21.6667 20.0007C21.6667 20.4427 21.4912 20.8666 21.1786 21.1792C20.866 21.4917 20.4421 21.6673 20.0001 21.6673C19.5581 21.6673 19.1341 21.4917 18.8216 21.1792C18.509 20.8666 18.3334 20.4427 18.3334 20.0007C18.3334 19.5586 18.509 19.1347 18.8216 18.8221C19.1341 18.5096 19.5581 18.334 20.0001 18.334C20.4421 18.334 20.866 18.5096 21.1786 18.8221C21.4912 19.1347 21.6667 19.5586 21.6667 20.0007ZM26.6667 21.6673C27.1088 21.6673 27.5327 21.4917 27.8453 21.1792C28.1578 20.8666 28.3334 20.4427 28.3334 20.0007C28.3334 19.5586 28.1578 19.1347 27.8453 18.8221C27.5327 18.5096 27.1088 18.334 26.6667 18.334C26.2247 18.334 25.8008 18.5096 25.4882 18.8221C25.1757 19.1347 25.0001 19.5586 25.0001 20.0007C25.0001 20.4427 25.1757 20.8666 25.4882 21.1792C25.8008 21.4917 26.2247 21.6673 26.6667 21.6673Z" fill="white"/>
</svg>
