<svg width="24" height="24" viewBox="0 0 24 24" fill="none" xmlns="http://www.w3.org/2000/svg">
<path d="M6.4991 5.65239C7.86896 4.46132 9.58912 3.74823 11.3999 3.62079V5.40039C11.3999 5.55952 11.4631 5.71213 11.5756 5.82465C11.6882 5.93718 11.8408 6.00039 11.9999 6.00039C12.159 6.00039 12.3116 5.93718 12.4242 5.82465C12.5367 5.71213 12.5999 5.55952 12.5999 5.40039V3.62199C14.5119 3.75907 16.3195 4.54569 17.723 5.85136C19.1264 7.15703 20.0413 8.90327 20.3159 10.8004H17.9999C17.8408 10.8004 17.6882 10.8636 17.5756 10.9761C17.4631 11.0886 17.3999 11.2413 17.3999 11.4004C17.3999 11.5595 17.4631 11.7121 17.5756 11.8247C17.6882 11.9372 17.8408 12.0004 17.9999 12.0004H20.3999C20.3985 13.1599 20.1627 14.3072 19.7067 15.3733C19.2508 16.4394 18.5841 17.4024 17.7467 18.2044C17.6364 18.3148 17.5735 18.4638 17.5713 18.6199C17.5691 18.7759 17.6277 18.9267 17.7348 19.0402C17.8419 19.1537 17.989 19.221 18.1449 19.2278C18.3008 19.2347 18.4533 19.1805 18.5699 19.0768C19.5263 18.1627 20.2877 17.0645 20.8085 15.8484C21.3292 14.6323 21.5984 13.3233 21.5999 12.0004C21.5999 9.45431 20.5885 7.01251 18.7881 5.21217C16.9878 3.41182 14.546 2.40039 11.9999 2.40039C9.45382 2.40039 7.01203 3.41182 5.21168 5.21217C3.41133 7.01251 2.3999 9.45431 2.3999 12.0004C2.3999 14.7544 3.6239 17.3284 5.4755 19.0768C5.53286 19.1308 5.60031 19.1731 5.67399 19.2011C5.74767 19.229 5.82614 19.2422 5.90492 19.2399C5.9837 19.2376 6.06125 19.2197 6.13314 19.1874C6.20503 19.1551 6.26985 19.109 6.3239 19.0516C6.37795 18.9942 6.42018 18.9268 6.44817 18.8531C6.47615 18.7794 6.48935 18.701 6.48701 18.6222C6.48467 18.5434 6.46684 18.4658 6.43453 18.394C6.40222 18.3221 6.35606 18.2572 6.2987 18.2032C4.6739 16.6684 3.5999 14.404 3.5999 12.0004H5.9999C6.15903 12.0004 6.31164 11.9372 6.42417 11.8247C6.53669 11.7121 6.5999 11.5595 6.5999 11.4004C6.5999 11.2413 6.53669 11.0886 6.42417 10.9761C6.31164 10.8636 6.15903 10.8004 5.9999 10.8004H3.6839C3.91281 9.20777 4.59611 7.71493 5.6519 6.50079L7.3751 8.22519C7.48777 8.33785 7.64057 8.40115 7.7999 8.40115C7.95923 8.40115 8.11204 8.33785 8.2247 8.22519C8.33737 8.11253 8.40066 7.95972 8.40066 7.80039C8.40066 7.64106 8.33737 7.48825 8.2247 7.37559L6.4991 5.65239ZM16.1387 6.96879C16.2477 6.88218 16.3835 6.83621 16.5228 6.83873C16.662 6.84126 16.796 6.89214 16.9018 6.98265C17.0077 7.07316 17.0787 7.19766 17.1028 7.33481C17.1269 7.47197 17.1025 7.61323 17.0339 7.73439L16.9019 7.96959C16.4193 8.82172 15.9337 9.67212 15.4451 10.5208C15.0545 11.1999 14.6585 11.8759 14.2571 12.5488C14.1067 12.8019 13.9531 13.0531 13.7963 13.3024C13.6763 13.4908 13.5587 13.6696 13.4723 13.7704C13.1623 14.1335 12.7208 14.3586 12.2448 14.3962C11.7688 14.4338 11.2974 14.2808 10.9343 13.9708C10.5712 13.6608 10.346 13.2193 10.3085 12.7433C10.2709 12.2673 10.4239 11.7959 10.7339 11.4328C10.8203 11.332 10.9775 11.1868 11.1455 11.0392C11.3255 10.8796 11.5571 10.684 11.8175 10.4644C12.3407 10.0276 12.9959 9.49239 13.6343 8.97639C14.3958 8.36042 15.1598 7.74762 15.9263 7.13799L16.1387 6.96999V6.96879Z" fill="white"/>
</svg>
