<svg width="24" height="24" viewBox="0 0 24 24" fill="none" xmlns="http://www.w3.org/2000/svg">
<path d="M17.7539 13.9999C18.0494 13.9999 18.3419 14.0581 18.6148 14.1712C18.8877 14.2843 19.1357 14.45 19.3446 14.659C19.5534 14.8679 19.7191 15.1159 19.832 15.3889C19.945 15.6619 20.0031 15.9545 20.0029 16.2499V16.8249C20.0029 17.7189 19.6829 18.5839 19.1019 19.2629C17.5319 21.0959 15.1449 22.0009 11.9999 22.0009C8.85393 22.0009 6.46793 21.0959 4.90193 19.2609C4.32218 18.5824 4.00342 17.7193 4.00293 16.8269V16.2489C4.00293 15.9535 4.06114 15.6609 4.17422 15.388C4.28731 15.1151 4.45306 14.8671 4.662 14.6582C4.87095 14.4494 5.11899 14.2838 5.39197 14.1708C5.66494 14.0578 5.9575 13.9998 6.25293 13.9999H17.7539ZM17.7539 15.4999H6.25193C6.15349 15.4999 6.05601 15.5193 5.96507 15.557C5.87413 15.5947 5.79152 15.65 5.72195 15.7196C5.65239 15.7893 5.59724 15.872 5.55966 15.9629C5.52208 16.0539 5.5028 16.1514 5.50293 16.2499V16.8269C5.50293 17.3619 5.69493 17.8799 6.04293 18.2869C7.29593 19.7559 9.26193 20.5009 11.9999 20.5009C14.7379 20.5009 16.7059 19.7559 17.9619 18.2879C18.3106 17.8802 18.5021 17.3613 18.5019 16.8249V16.2489C18.5019 16.0504 18.4232 15.86 18.2829 15.7196C18.1427 15.5792 17.9524 15.5001 17.7539 15.4999ZM11.9999 2.00488C12.6565 2.00488 13.3067 2.13421 13.9133 2.38548C14.52 2.63676 15.0712 3.00506 15.5355 3.46935C15.9998 3.93364 16.3681 4.48484 16.6193 5.09147C16.8706 5.69809 16.9999 6.34827 16.9999 7.00488C16.9999 7.66149 16.8706 8.31167 16.6193 8.9183C16.3681 9.52493 15.9998 10.0761 15.5355 10.5404C15.0712 11.0047 14.52 11.373 13.9133 11.6243C13.3067 11.8756 12.6565 12.0049 11.9999 12.0049C10.6738 12.0049 9.40208 11.4781 8.4644 10.5404C7.52671 9.60273 6.99993 8.33097 6.99993 7.00488C6.99993 5.6788 7.52671 4.40703 8.4644 3.46935C9.40208 2.53167 10.6738 2.00488 11.9999 2.00488ZM11.9999 3.50488C11.5403 3.50488 11.0852 3.59541 10.6605 3.7713C10.2359 3.9472 9.85006 4.205 9.52506 4.53001C9.20005 4.85501 8.94224 5.24085 8.76635 5.66549C8.59046 6.09013 8.49993 6.54526 8.49993 7.00488C8.49993 7.46451 8.59046 7.91963 8.76635 8.34427C8.94224 8.76891 9.20005 9.15475 9.52506 9.47976C9.85006 9.80476 10.2359 10.0626 10.6605 10.2385C11.0852 10.4144 11.5403 10.5049 11.9999 10.5049C12.9282 10.5049 13.8184 10.1361 14.4748 9.47976C15.1312 8.82338 15.4999 7.93314 15.4999 7.00488C15.4999 6.07662 15.1312 5.18639 14.4748 4.53001C13.8184 3.87363 12.9282 3.50488 11.9999 3.50488Z" fill="white"/>
</svg>
