<svg width="36" height="36" viewBox="0 0 36 36" fill="none" xmlns="http://www.w3.org/2000/svg">
<path d="M13.5 4.49999C14.8433 4.49999 16.0515 5.08949 16.875 6.02324C17.6132 5.18614 18.6361 4.65322 19.7452 4.52798C20.8542 4.40273 21.9702 4.69409 22.8765 5.34548C23.7828 5.99688 24.4147 6.96181 24.6494 8.05293C24.8842 9.14405 24.7052 10.2835 24.147 11.25H27C27.5967 11.25 28.169 11.487 28.591 11.909C29.0129 12.331 29.25 12.9033 29.25 13.5V18C29.25 18.5967 29.0129 19.169 28.591 19.591C28.169 20.0129 27.5967 20.25 27 20.25V27C27 28.1935 26.5259 29.3381 25.682 30.182C24.8381 31.0259 23.6935 31.5 22.5 31.5H11.25C10.0565 31.5 8.91193 31.0259 8.06802 30.182C7.22411 29.3381 6.75 28.1935 6.75 27V20.25C6.15326 20.25 5.58097 20.0129 5.15901 19.591C4.73705 19.169 4.5 18.5967 4.5 18V13.5C4.5 12.9033 4.73705 12.331 5.15901 11.909C5.58097 11.487 6.15326 11.25 6.75 11.25H9.603C9.20805 10.5659 9.00012 9.78992 9.00011 9.00002C9.00011 8.21011 9.20803 7.43412 9.60297 6.75004C9.99792 6.06595 10.566 5.49788 11.25 5.10292C11.9341 4.70795 12.7101 4.50001 13.5 4.49999ZM11.25 8.99999C11.25 9.59673 11.4871 10.169 11.909 10.591C12.331 11.0129 12.9033 11.25 13.5 11.25H15.75V8.99999C15.75 8.40325 15.5129 7.83096 15.091 7.409C14.669 6.98704 14.0967 6.74999 13.5 6.74999C12.9033 6.74999 12.331 6.98704 11.909 7.409C11.4871 7.83096 11.25 8.40325 11.25 8.99999ZM18 13.5V18H27V13.5H18ZM15.75 13.5H6.75V18H15.75V13.5ZM9 20.25V27C9 27.5967 9.23705 28.169 9.65901 28.591C10.081 29.0129 10.6533 29.25 11.25 29.25H15.75V20.25H9ZM18 29.25H22.5C23.0967 29.25 23.669 29.0129 24.091 28.591C24.5129 28.169 24.75 27.5967 24.75 27V20.25H18V29.25ZM22.5 8.99999C22.5 8.40325 22.2629 7.83096 21.841 7.409C21.419 6.98704 20.8467 6.74999 20.25 6.74999C19.6533 6.74999 19.081 6.98704 18.659 7.409C18.2371 7.83096 18 8.40325 18 8.99999V11.25H20.25C20.8467 11.25 21.419 11.0129 21.841 10.591C22.2629 10.169 22.5 9.59673 22.5 8.99999Z" fill="#FFCC00"/>
</svg>
