<svg width="38" height="40" viewBox="0 0 38 40" fill="none" xmlns="http://www.w3.org/2000/svg">
<rect width="37.4148" height="39.9828" rx="8" fill="#FE7100"/>
<path d="M12.5504 12.5503C14.1834 10.9174 16.3981 10 18.7074 10C21.0168 10 23.2315 10.9174 24.8644 12.5503C26.4974 14.1833 27.4148 16.398 27.4148 18.7073C27.4148 21.0166 26.4974 23.2314 24.8644 24.8643L23.6774 26.0383C22.8024 26.8963 21.6674 28.0003 20.2714 29.3503C19.8519 29.756 19.2911 29.9828 18.7074 29.9828C18.1238 29.9828 17.563 29.756 17.1434 29.3503L13.6524 25.9543C13.2134 25.5233 12.8464 25.1603 12.5504 24.8643C11.7419 24.0558 11.1004 23.0959 10.6628 22.0395C10.2252 20.9831 10 19.8508 10 18.7073C10 17.5638 10.2252 16.4316 10.6628 15.3751C11.1004 14.3187 11.7419 13.3588 12.5504 12.5503ZM23.8034 13.6103C22.4516 12.2588 20.6183 11.4996 18.7067 11.4998C16.7952 11.5 14.962 12.2595 13.6104 13.6113C12.2589 14.9631 11.4997 16.7965 11.4999 18.708C11.5001 20.6196 12.2596 22.4528 13.6114 23.8043L15.0974 25.2723C16.1239 26.2753 17.1533 27.2753 18.1854 28.2723C18.3253 28.4076 18.5123 28.4833 18.7069 28.4833C18.9016 28.4833 19.0886 28.4076 19.2284 28.2723L22.6224 24.9723C23.0924 24.5113 23.4854 24.1223 23.8024 23.8043C25.1539 22.4527 25.9132 20.6197 25.9132 18.7083C25.9132 16.797 25.1539 14.9639 23.8024 13.6123L23.8034 13.6103ZM18.7074 15.9813C19.1017 15.9813 19.492 16.059 19.8563 16.2098C20.2205 16.3607 20.5514 16.5818 20.8302 16.8606C21.1089 17.1393 21.3301 17.4703 21.4809 17.8345C21.6318 18.1987 21.7094 18.5891 21.7094 18.9833C21.7094 19.3775 21.6318 19.7679 21.4809 20.1321C21.3301 20.4963 21.1089 20.8273 20.8302 21.106C20.5514 21.3848 20.2205 21.6059 19.8563 21.7568C19.492 21.9077 19.1017 21.9853 18.7074 21.9853C17.9209 21.971 17.1714 21.6484 16.6202 21.0871C16.069 20.5258 15.7602 19.7705 15.7602 18.9838C15.7602 18.1971 16.069 17.4419 16.6202 16.8805C17.1714 16.3192 17.9209 15.9967 18.7074 15.9823V15.9813ZM18.7074 17.4813C18.5102 17.4813 18.3149 17.5202 18.1327 17.5956C17.9504 17.6711 17.7848 17.7818 17.6454 17.9212C17.5059 18.0607 17.3953 18.2263 17.3198 18.4085C17.2443 18.5908 17.2054 18.7861 17.2054 18.9833C17.2054 19.1806 17.2443 19.3759 17.3198 19.5581C17.3953 19.7403 17.5059 19.9059 17.6454 20.0454C17.7848 20.1849 17.9504 20.2955 18.1327 20.371C18.3149 20.4465 18.5102 20.4853 18.7074 20.4853C19.1057 20.4853 19.4876 20.3271 19.7692 20.0455C20.0507 19.7639 20.2089 19.382 20.2089 18.9838C20.2089 18.5856 20.0507 18.2037 19.7692 17.9221C19.4876 17.6405 19.1057 17.4823 18.7074 17.4823V17.4813Z" fill="white"/>
</svg>
