<svg width="40" height="40" viewBox="0 0 40 40" fill="none" xmlns="http://www.w3.org/2000/svg">
<rect width="39.2" height="39.2" rx="8" fill="#7805A7"/>
<path d="M23.8 10C24.5957 10 25.3587 10.3161 25.9213 10.8787C26.4839 11.4413 26.8 12.2044 26.8 13V17.92C26.4165 17.7238 26.0145 17.5658 25.6 17.4484V14.8H11.2V23.8C11.2 24.2774 11.3896 24.7352 11.7272 25.0728C12.0648 25.4104 12.5226 25.6 13 25.6H17.4484C17.5672 26.0188 17.7244 26.4196 17.92 26.8H13C12.2044 26.8 11.4413 26.4839 10.8787 25.9213C10.3161 25.3587 10 24.5957 10 23.8V13C10 12.2044 10.3161 11.4413 10.8787 10.8787C11.4413 10.3161 12.2044 10 13 10H23.8ZM23.8 11.2H13C12.5226 11.2 12.0648 11.3896 11.7272 11.7272C11.3896 12.0648 11.2 12.5226 11.2 13V13.6H25.6V13C25.6 12.5226 25.4104 12.0648 25.0728 11.7272C24.7352 11.3896 24.2774 11.2 23.8 11.2ZM29.2 23.8C29.2 25.2322 28.6311 26.6057 27.6184 27.6184C26.6057 28.6311 25.2322 29.2 23.8 29.2C22.3678 29.2 20.9943 28.6311 19.9816 27.6184C18.9689 26.6057 18.4 25.2322 18.4 23.8C18.4 22.3678 18.9689 20.9943 19.9816 19.9816C20.9943 18.9689 22.3678 18.4 23.8 18.4C25.2322 18.4 26.6057 18.9689 27.6184 19.9816C28.6311 20.9943 29.2 22.3678 29.2 23.8V23.8ZM23.8 24.6484L25.1752 26.0248C25.231 26.0806 25.2972 26.1248 25.3701 26.155C25.443 26.1852 25.5211 26.2008 25.6 26.2008C25.6789 26.2008 25.757 26.1852 25.8299 26.155C25.9028 26.1248 25.969 26.0806 26.0248 26.0248C26.0806 25.969 26.1248 25.9028 26.155 25.8299C26.1852 25.757 26.2008 25.6789 26.2008 25.6C26.2008 25.5211 26.1852 25.443 26.155 25.3701C26.1248 25.2972 26.0806 25.231 26.0248 25.1752L24.6484 23.8L26.0248 22.4248C26.1375 22.3121 26.2008 22.1593 26.2008 22C26.2008 21.8407 26.1375 21.6879 26.0248 21.5752C25.9121 21.4625 25.7593 21.3992 25.6 21.3992C25.4407 21.3992 25.2879 21.4625 25.1752 21.5752L23.8 22.9516L22.4248 21.5752C22.3121 21.4625 22.1593 21.3992 22 21.3992C21.8407 21.3992 21.6879 21.4625 21.5752 21.5752C21.4625 21.6879 21.3992 21.8407 21.3992 22C21.3992 22.1593 21.4625 22.3121 21.5752 22.4248L22.9516 23.8L21.5752 25.1752C21.5194 25.231 21.4752 25.2972 21.445 25.3701C21.4148 25.443 21.3992 25.5211 21.3992 25.6C21.3992 25.6789 21.4148 25.757 21.445 25.8299C21.4752 25.9028 21.5194 25.969 21.5752 26.0248C21.631 26.0806 21.6972 26.1248 21.7701 26.155C21.843 26.1852 21.9211 26.2008 22 26.2008C22.0789 26.2008 22.157 26.1852 22.2299 26.155C22.3028 26.1248 22.369 26.0806 22.4248 26.0248L23.8 24.6484V24.6484Z" fill="#FFCC00"/>
</svg>
