<svg width="36" height="36" viewBox="0 0 36 36" fill="none" xmlns="http://www.w3.org/2000/svg">
<path d="M8.5064 6.3855C14.3984 1.557 23.1059 1.89299 28.6064 7.3935C34.4639 13.251 34.4639 22.749 28.6064 28.6065C22.7489 34.464 13.2509 34.464 7.3934 28.6065C5.59584 26.8114 4.28401 24.5889 3.58109 22.1477C2.87817 19.7065 2.80721 17.1267 3.3749 14.6505L3.4904 14.181L6.3914 14.946C5.67221 17.6794 5.94094 20.5789 7.15022 23.1336C8.35949 25.6882 10.4317 27.7341 13.0016 28.9105C15.5716 30.087 18.4743 30.3185 21.1983 29.5644C23.9222 28.8102 26.2926 27.1188 27.8915 24.7881C29.4905 22.4575 30.2155 19.6372 29.9388 16.8244C29.662 14.0115 28.4013 11.3867 26.3787 9.41235C24.3561 7.43803 21.7016 6.24099 18.8829 6.03219C16.0642 5.82339 13.2623 6.61624 10.9709 8.271L10.6394 8.52L12.1649 10.0455L5.2709 11.6355L6.8609 4.7415L8.5049 6.3855H8.5064ZM19.4999 9V12H23.2499V15H14.9999C14.8125 14.9997 14.6317 15.0695 14.4932 15.1958C14.3547 15.322 14.2685 15.4956 14.2516 15.6822C14.2347 15.8689 14.2882 16.0551 14.4017 16.2042C14.5152 16.3534 14.6805 16.4546 14.8649 16.488L14.9999 16.5H20.9999C21.9945 16.5 22.9483 16.8951 23.6516 17.5983C24.3548 18.3016 24.7499 19.2554 24.7499 20.25C24.7499 21.2446 24.3548 22.1984 23.6516 22.9016C22.9483 23.6049 21.9945 24 20.9999 24H19.4999V27H16.4999V24H12.7499V21H20.9999C21.1873 21.0003 21.3681 20.9305 21.5066 20.8042C21.6451 20.678 21.7313 20.5044 21.7482 20.3178C21.7651 20.1311 21.7116 19.9449 21.5981 19.7957C21.4846 19.6466 21.3193 19.5454 21.1349 19.512L20.9999 19.5H14.9999C14.0053 19.5 13.0515 19.1049 12.3482 18.4016C11.645 17.6984 11.2499 16.7446 11.2499 15.75C11.2499 14.7554 11.645 13.8016 12.3482 13.0983C13.0515 12.3951 14.0053 12 14.9999 12H16.4999V9H19.4999Z" fill="#2F80ED"/>
</svg>
