<svg width="80" height="24" viewBox="0 0 80 24" fill="none" xmlns="http://www.w3.org/2000/svg">
<g clip-path="url(#clip0_1354_4360)">
<path d="M11.2001 5.37109H0.390042C0.0270171 5.37109 -0.282227 5.68033 -0.282227 6.0568V7.28034C-0.282227 7.65681 0.0270171 7.96605 0.390042 7.96605H11.2001C11.5766 7.96605 11.8724 7.65681 11.8858 7.28034V6.07025C11.8858 5.68033 11.5766 5.37109 11.2001 5.37109ZM11.2001 12.161H0.390042C0.215252 12.161 0.0404625 12.2282 -0.0805459 12.3627C-0.215 12.4971 -0.282227 12.6585 -0.282227 12.8467V14.0703C-0.282227 14.4467 0.0270171 14.756 0.390042 14.756H11.2001C11.5766 14.756 11.8724 14.4602 11.8858 14.0703V12.8467C11.8724 12.4568 11.5766 12.161 11.2001 12.161ZM6.4808 15.5492H0.390042C0.215252 15.5492 0.0404625 15.6165 -0.0805459 15.7509C-0.201554 15.8854 -0.282227 16.0467 -0.282227 16.235V17.4585C-0.282227 17.835 0.0270171 18.1442 0.390042 18.1442H6.46735C6.84382 18.1442 7.13962 17.835 7.13962 17.4719V16.2484C7.15307 15.845 6.85727 15.5492 6.4808 15.5492ZM11.8858 8.75933H0.390042C0.215252 8.75933 0.0404625 8.82655 -0.0805459 8.96101C-0.201554 9.09546 -0.282227 9.25681 -0.282227 9.44504V10.6686C-0.282227 11.045 0.0270171 11.3543 0.390042 11.3543H11.8724C12.2489 11.3543 12.5447 11.045 12.5447 10.6686V9.44504C12.5581 9.08202 12.2489 8.77277 11.8858 8.75933Z" fill="#2DBDEF"/>
<path d="M24.457 8.11354C24.1209 7.76396 23.7309 7.49505 23.2873 7.30681C22.8436 7.11858 22.373 7.02446 21.8889 7.02446C21.4183 7.01101 20.9612 7.11858 20.5309 7.32026C20.2486 7.45471 19.9931 7.64295 19.778 7.87152V7.65639C19.778 7.54883 19.7377 7.44127 19.6704 7.36059C19.6032 7.27992 19.4957 7.22614 19.3746 7.22614H17.8822C17.7746 7.22614 17.6671 7.26648 17.5999 7.36059C17.5192 7.44127 17.4788 7.54883 17.4923 7.65639V17.7135C17.4923 17.8211 17.5326 17.9287 17.5999 18.0093C17.6805 18.09 17.7746 18.1303 17.8822 18.1303H19.415C19.5225 18.1303 19.6167 18.09 19.6973 18.0093C19.778 17.9421 19.8318 17.8345 19.8183 17.7135V14.2715C20.0335 14.5135 20.3158 14.6883 20.6251 14.7959C21.0284 14.9438 21.4452 15.0245 21.8755 15.0245C22.3595 15.0245 22.8436 14.9303 23.2873 14.7421C23.7309 14.5539 24.1343 14.285 24.4704 13.9354C24.82 13.5724 25.0889 13.1421 25.2772 12.6715C25.4923 12.1471 25.5864 11.5824 25.573 11.0177C25.5864 10.453 25.4788 9.88832 25.2772 9.35051C25.0755 8.90681 24.8066 8.47656 24.457 8.11354ZM23.0856 11.7572C23.0049 11.9724 22.8839 12.1606 22.7225 12.3354C22.4133 12.6715 21.9696 12.8598 21.5125 12.8598C21.2839 12.8598 21.0553 12.8194 20.8402 12.7119C20.6385 12.6177 20.4503 12.4967 20.2889 12.3354C20.1276 12.174 20.0066 11.9724 19.9259 11.7572C19.7511 11.3001 19.7511 10.8026 19.9259 10.3455C20.0066 10.1303 20.141 9.94211 20.2889 9.78076C20.4503 9.61942 20.6385 9.48496 20.8402 9.39085C21.0553 9.29673 21.2839 9.24295 21.5125 9.24295C21.7545 9.24295 21.9696 9.28328 22.1982 9.39085C22.3999 9.48496 22.5881 9.60597 22.736 9.76732C22.8973 9.92866 23.0049 10.1169 23.099 10.332C23.2604 10.8026 23.2469 11.3001 23.0856 11.7572ZM33.7881 7.23959H32.2688C32.1612 7.23959 32.0536 7.27992 31.9864 7.36059C31.9057 7.44127 31.8654 7.54883 31.8654 7.66984V7.85807C31.6772 7.6295 31.4352 7.45471 31.1797 7.3337C30.7629 7.13202 30.3057 7.03791 29.8486 7.03791C28.8671 7.03791 27.9394 7.42782 27.2402 8.11354C26.8772 8.47656 26.5948 8.90681 26.4066 9.3774C26.1915 9.90177 26.0839 10.4665 26.0973 11.0446C26.0839 11.6093 26.1915 12.174 26.4066 12.7119C26.6083 13.1824 26.8772 13.6127 27.2402 13.9757C27.9259 14.6749 28.8671 15.0648 29.8352 15.0648C30.2923 15.0782 30.7494 14.9707 31.1662 14.769C31.4217 14.6345 31.6772 14.4598 31.8654 14.2446V14.4463C31.8654 14.5539 31.9057 14.6614 31.9864 14.7421C32.0671 14.8093 32.1612 14.8631 32.2688 14.8631H33.7881C33.8957 14.8631 34.0032 14.8228 34.0704 14.7421C34.1511 14.6614 34.1915 14.5539 34.1915 14.4463V7.68328C34.1915 7.57572 34.1511 7.46816 34.0839 7.38749C34.0032 7.29337 33.8957 7.23959 33.7881 7.23959ZM31.731 11.7572C31.6503 11.9724 31.5293 12.1606 31.3679 12.3354C31.2066 12.4967 31.0318 12.6312 30.8301 12.7253C30.3999 12.927 29.9024 12.927 29.4721 12.7253C29.2704 12.6312 29.0822 12.4967 28.9209 12.3354C28.7595 12.174 28.6385 11.9724 28.5578 11.7572C28.3965 11.3001 28.3965 10.8026 28.5578 10.3455C28.6385 10.1303 28.7595 9.95555 28.9209 9.78076C29.0822 9.61942 29.257 9.48496 29.4721 9.39085C29.9024 9.18917 30.3999 9.18917 30.8167 9.39085C31.0183 9.48496 31.2066 9.60597 31.3545 9.76732C31.5024 9.92866 31.6234 10.1169 31.7175 10.332C31.9057 10.8026 31.9057 11.3001 31.731 11.7572ZM48.9276 10.8429C48.7125 10.6547 48.457 10.4934 48.1881 10.3858C47.9057 10.2648 47.5965 10.1841 47.3007 10.1169L46.1444 9.88832C45.8486 9.83454 45.6335 9.75387 45.5259 9.65975C45.4318 9.59253 45.3646 9.48496 45.3646 9.36395C45.3646 9.24295 45.4318 9.13538 45.5797 9.04127C45.7814 8.9337 45.9965 8.87992 46.2251 8.89337C46.5209 8.89337 46.8167 8.9606 47.0856 9.06816C47.3545 9.18917 47.6099 9.31018 47.852 9.47152C48.1881 9.68665 48.4839 9.64631 48.6856 9.40429L49.2368 8.77236C49.3444 8.6648 49.3982 8.53034 49.4116 8.38244C49.3982 8.2211 49.3175 8.08665 49.1965 7.97908C48.9679 7.7774 48.5915 7.56227 48.094 7.34715C47.5965 7.13202 46.9646 7.02446 46.2251 7.02446C45.7679 7.01101 45.3242 7.07824 44.894 7.21269C44.531 7.3337 44.1814 7.50849 43.8721 7.73706C43.5898 7.95219 43.3746 8.2211 43.2133 8.54379C43.0654 8.85303 42.9847 9.18917 42.9847 9.5253C42.9847 10.1572 43.173 10.6682 43.5494 11.0446C43.9259 11.4211 44.4234 11.6766 45.0419 11.7976L46.252 12.0665C46.5074 12.1068 46.7763 12.1875 47.0184 12.3085C47.1528 12.3623 47.2335 12.4967 47.2335 12.6446C47.2335 12.7791 47.1663 12.9001 47.0184 13.0077C46.8705 13.1152 46.6284 13.1824 46.3057 13.1824C45.9831 13.1824 45.6469 13.1152 45.3511 12.9673C45.0688 12.8329 44.8133 12.6581 44.5713 12.4564C44.4637 12.3757 44.3562 12.3085 44.2217 12.2547C44.0873 12.2144 43.9125 12.2547 43.7377 12.4026L43.0789 12.9001C42.8906 13.0345 42.7965 13.2631 42.8503 13.4782C42.8906 13.7068 43.0654 13.9219 43.4015 14.1774C44.2352 14.7421 45.2301 15.0379 46.2385 15.011C46.7091 15.011 47.1797 14.9572 47.6234 14.8228C48.0133 14.7018 48.3763 14.527 48.699 14.285C48.9948 14.0698 49.2368 13.7875 49.3982 13.4513C49.5595 13.1287 49.6402 12.7791 49.6402 12.4161C49.6536 12.0934 49.5864 11.7707 49.452 11.4749C49.3175 11.2598 49.1427 11.0312 48.9276 10.8429ZM55.5696 12.685C55.5024 12.564 55.3814 12.4833 55.2335 12.4564C55.099 12.4564 54.9511 12.4967 54.8436 12.5774C54.6553 12.6984 54.4402 12.7656 54.2251 12.7791C54.1578 12.7791 54.0772 12.7656 54.0099 12.7522C53.9293 12.7387 53.862 12.6984 53.8083 12.6446C53.741 12.5774 53.6873 12.4967 53.6469 12.4161C53.5931 12.2816 53.5662 12.1471 53.5797 12.0127V9.25639H55.5427C55.6637 9.25639 55.7713 9.20261 55.852 9.12194C55.9326 9.04127 55.9864 8.94715 55.9864 8.82614V7.65639C55.9864 7.53539 55.9461 7.42782 55.852 7.36059C55.7713 7.27992 55.6637 7.23959 55.5562 7.23959H53.5797V5.35723C53.5797 5.24967 53.5394 5.12866 53.4587 5.06143C53.378 4.99421 53.2839 4.95387 53.1763 4.94043H51.6436C51.536 4.94043 51.4284 4.98076 51.3478 5.06143C51.2671 5.14211 51.2133 5.24967 51.2133 5.35723V7.23959H50.3394C50.2318 7.23959 50.1242 7.27992 50.0436 7.37404C49.9763 7.45471 49.936 7.56227 49.936 7.66984V8.83959C49.936 8.94715 49.9763 9.05471 50.0436 9.13539C50.1108 9.2295 50.2183 9.26984 50.3394 9.26984H51.2133V12.5505C51.1999 12.9404 51.2805 13.3303 51.4419 13.6799C51.5898 13.9757 51.778 14.2312 52.0335 14.4463C52.2755 14.648 52.5578 14.7959 52.8671 14.8766C53.1763 14.9707 53.499 15.0245 53.8217 15.0245C54.2385 15.0245 54.6688 14.9572 55.0721 14.8228C55.4486 14.7018 55.7847 14.4866 56.0536 14.2043C56.2284 14.0295 56.2419 13.7471 56.1074 13.5455L55.5696 12.685ZM63.8789 7.23959H62.3595C62.252 7.23959 62.1578 7.27992 62.0772 7.36059C61.9965 7.44127 61.9562 7.54883 61.9562 7.66984V7.85807C61.7679 7.6295 61.5394 7.45471 61.2705 7.3337C60.8536 7.13202 60.3965 7.03791 59.9394 7.03791C58.9578 7.03791 58.0301 7.42782 57.331 8.11354C56.9679 8.47656 56.6856 8.90681 56.4973 9.3774C56.2822 9.90177 56.1747 10.4665 56.1881 11.0312C56.1747 11.5959 56.2822 12.1606 56.4973 12.6984C56.6856 13.169 56.9814 13.5993 57.331 13.9623C58.0167 14.6614 58.9444 15.0514 59.9259 15.0514C60.3831 15.0648 60.8402 14.9572 61.257 14.769C61.5259 14.6345 61.7679 14.4598 61.9562 14.2446V14.4463C61.9562 14.5539 61.9965 14.6614 62.0772 14.7287C62.1578 14.8093 62.252 14.8497 62.3595 14.8497H63.8789C64.1074 14.8497 64.2822 14.6749 64.2822 14.4463V7.68328C64.2822 7.57572 64.2419 7.46816 64.1747 7.38749C64.1074 7.29337 63.9999 7.23959 63.8789 7.23959ZM61.8352 11.7707C61.7545 11.9858 61.6335 12.174 61.4721 12.3488C61.3108 12.5102 61.136 12.6446 60.9343 12.7387C60.7192 12.8329 60.4906 12.8866 60.2486 12.8866C60.0066 12.8866 59.7915 12.8329 59.5763 12.7387C59.3747 12.6446 59.1864 12.5102 59.0251 12.3488C58.8637 12.1875 58.7427 11.9858 58.6755 11.7707C58.5141 11.3135 58.5141 10.8161 58.6755 10.3589C58.7562 10.1438 58.8772 9.95555 59.0251 9.79421C59.1864 9.63286 59.3747 9.49841 59.5763 9.40429C59.7915 9.31018 60.02 9.25639 60.2486 9.25639C60.4772 9.25639 60.7057 9.29673 60.9343 9.40429C61.136 9.49841 61.3108 9.61942 61.4721 9.78076C61.6335 9.94211 61.7545 10.1303 61.8352 10.3455C62.0099 10.7892 62.0099 11.3135 61.8352 11.7707ZM72.215 12.5908L71.341 11.9186C71.1797 11.7841 71.0184 11.7438 70.8839 11.7976C70.7629 11.8514 70.6553 11.932 70.5612 12.0261C70.373 12.2547 70.1444 12.4564 69.9024 12.6312C69.6335 12.7791 69.3511 12.8598 69.0553 12.8329C68.7057 12.8329 68.3831 12.7387 68.1007 12.5371C67.8184 12.3354 67.6032 12.0665 67.4957 11.7303C67.415 11.5018 67.3747 11.2732 67.3747 11.0446C67.3747 10.8026 67.415 10.574 67.4957 10.332C67.5763 10.1169 67.6839 9.92866 67.8452 9.76732C68.0066 9.60597 68.1814 9.47152 68.3831 9.39085C68.5982 9.29673 68.8268 9.24295 69.0688 9.24295C69.3646 9.2295 69.6604 9.31017 69.9158 9.45807C70.1713 9.61942 70.3864 9.8211 70.5747 10.0631C70.6553 10.1572 70.7629 10.2379 70.8839 10.2917C71.0184 10.3455 71.1797 10.3051 71.341 10.1707L72.215 9.51185C72.3226 9.44463 72.4032 9.33706 72.4436 9.21605C72.4973 9.0816 72.4839 8.9337 72.4032 8.81269C72.0671 8.28832 71.61 7.85807 71.0587 7.54883C70.4805 7.22614 69.7948 7.05135 69.0284 7.05135C68.4906 7.05135 67.9528 7.15891 67.4419 7.36059C66.9578 7.56227 66.5276 7.84463 66.1646 8.20765C65.8015 8.57068 65.5057 9.00093 65.3041 9.48496C64.8873 10.4934 64.8873 11.6228 65.3041 12.6312C65.5057 13.1018 65.7881 13.5455 66.1646 13.895C66.931 14.648 67.9528 15.0514 69.0284 15.0514C69.7948 15.0514 70.4805 14.8766 71.0587 14.5539C71.61 14.2446 72.0805 13.8144 72.4167 13.2766C72.4839 13.1556 72.4973 13.0077 72.457 12.8866C72.4032 12.7791 72.3226 12.6715 72.215 12.5908ZM80.3091 14.164L77.9024 10.6413L79.9595 7.9253C80.0536 7.80429 80.094 7.6295 80.0402 7.4816C79.9999 7.37404 79.9058 7.26647 79.6503 7.26647H78.0234C77.9293 7.26647 77.8352 7.29337 77.7545 7.3337C77.6469 7.38748 77.5663 7.46816 77.5125 7.56227L75.8721 9.86143H75.4822V4.4295C75.4822 4.32194 75.4419 4.21438 75.3612 4.1337C75.2805 4.05303 75.1864 4.0127 75.0789 4.0127H73.5595C73.452 4.0127 73.3444 4.05303 73.2637 4.1337C73.1831 4.21438 73.1427 4.30849 73.1427 4.4295V14.4463C73.1427 14.5673 73.1831 14.6614 73.2637 14.7421C73.3444 14.8228 73.452 14.8631 73.5595 14.8631H75.0789C75.1864 14.8631 75.294 14.8228 75.3612 14.7421C75.4419 14.6614 75.4822 14.5539 75.4822 14.4463V11.7976H75.9125L77.7007 14.5404C77.8083 14.7421 78.0099 14.8631 78.2251 14.8631H79.9326C80.1881 14.8631 80.2957 14.7421 80.3494 14.6345C80.4167 14.4598 80.4032 14.285 80.3091 14.164ZM42.42 7.25303H40.7125C40.578 7.25303 40.457 7.29337 40.3629 7.38749C40.2822 7.46816 40.2284 7.56227 40.2015 7.66984L38.9377 12.3488H38.6284L37.2839 7.66984C37.257 7.57572 37.2167 7.4816 37.1494 7.38749C37.0688 7.29337 36.9612 7.23959 36.8402 7.23959H35.1057C34.8772 7.23959 34.7427 7.30681 34.6755 7.46816C34.6352 7.60261 34.6352 7.75051 34.6755 7.88496L36.8267 14.4732C36.8671 14.5673 36.9074 14.6749 36.9881 14.7421C37.0688 14.8228 37.1898 14.8631 37.3108 14.8631H38.2251L38.1444 15.0782L37.9427 15.6833C37.8755 15.8715 37.7679 16.0329 37.6066 16.1539C37.4587 16.2614 37.2839 16.3287 37.0957 16.3152C36.9343 16.3152 36.7864 16.2749 36.6385 16.2211C36.4906 16.1539 36.3562 16.0732 36.2352 15.9791C36.1276 15.8984 35.9931 15.8581 35.8452 15.8581H35.8318C35.6704 15.8715 35.5225 15.9522 35.4419 16.1001L34.9041 16.8934C34.6889 17.2429 34.8099 17.4581 34.9444 17.5791C35.2402 17.848 35.5763 18.0497 35.9528 18.1707C36.3696 18.3186 36.7999 18.3858 37.2301 18.3858C38.0099 18.3858 38.6553 18.1707 39.1528 17.7539C39.6637 17.2967 40.0536 16.7051 40.2419 16.0329L42.7427 7.88496C42.7965 7.73706 42.8099 7.58917 42.7562 7.45471C42.7427 7.3606 42.6486 7.23959 42.42 7.25303Z" fill="white"/>
</g>
<defs>
<clipPath id="clip0_1354_4360">
<rect width="80" height="22.1849" fill="white" transform="translate(0 0.907227)"/>
</clipPath>
</defs>
</svg>
