<svg width="42" height="42" viewBox="0 0 42 42" fill="none" xmlns="http://www.w3.org/2000/svg">
<rect width="42.0003" height="42.0011" rx="8" fill="#7805A7"/>
<path d="M19.2489 12C20.619 11.9998 21.9611 12.3879 23.1197 13.1192C24.2783 13.8505 25.2059 14.8952 25.7951 16.1321C26.3843 17.3691 26.611 18.7476 26.4488 20.1081C26.2867 21.4686 25.7423 22.7552 24.8789 23.819L29.7789 28.719C29.9134 28.8527 29.9923 29.0323 29.9997 29.2218C30.0071 29.4113 29.9425 29.5966 29.8188 29.7403C29.695 29.8841 29.5215 29.9756 29.333 29.9965C29.1445 30.0174 28.9551 29.9661 28.8029 29.853L28.7189 29.78L23.8179 24.88C22.9168 25.6111 21.8533 26.1153 20.7169 26.35C19.5805 26.5848 18.4043 26.5434 17.2873 26.2293C16.1702 25.9151 15.1448 25.3374 14.2974 24.5447C13.4499 23.752 12.8051 22.7675 12.4172 21.6738C12.0292 20.5802 11.9095 19.4094 12.0679 18.2599C12.2264 17.1104 12.6585 16.0156 13.3279 15.0678C13.9973 14.1199 14.8844 13.3466 15.9147 12.8127C16.9451 12.2789 18.0885 12.0002 19.2489 12ZM19.2489 13.5C18.4938 13.5 17.7461 13.6487 17.0485 13.9377C16.3508 14.2267 15.717 14.6502 15.183 15.1841C14.6491 15.7181 14.2255 16.3519 13.9366 17.0496C13.6476 17.7472 13.4989 18.4949 13.4989 19.25C13.4989 20.0051 13.6476 20.7528 13.9366 21.4504C14.2255 22.1481 14.6491 22.7819 15.183 23.3159C15.717 23.8498 16.3508 24.2733 17.0485 24.5623C17.7461 24.8513 18.4938 25 19.2489 25C20.7739 25 22.2364 24.3942 23.3148 23.3159C24.3931 22.2375 24.9989 20.775 24.9989 19.25C24.9989 17.725 24.3931 16.2625 23.3148 15.1841C22.2364 14.1058 20.7739 13.5 19.2489 13.5Z" fill="white"/>
</svg>
