<svg width="20" height="20" viewBox="0 0 20 20" fill="none" xmlns="http://www.w3.org/2000/svg">
<path d="M9.06592 6.00392L9.24992 5.99892H16.7499C17.5799 5.99885 18.3784 6.31632 18.9818 6.88623C19.5852 7.45614 19.9477 8.23529 19.9949 9.06392L19.9999 9.24892V16.7489C20 17.5791 19.6824 18.3778 19.1122 18.9812C18.5421 19.5846 17.7627 19.9469 16.9339 19.9939L16.7499 19.9989H9.24992C8.41978 19.999 7.62109 19.6814 7.01769 19.1112C6.41429 18.5411 6.05192 17.7617 6.00492 16.9329L5.99992 16.7499V9.24992C5.99987 8.41978 6.31748 7.62109 6.88759 7.01769C7.45771 6.41429 8.23711 6.05192 9.06592 6.00492V6.00392ZM16.7499 7.49892H9.24992C8.81073 7.49894 8.3876 7.66409 8.06453 7.9616C7.74146 8.25911 7.54206 8.66722 7.50592 9.10492L7.49992 9.24892V16.7489C7.49996 17.1883 7.66525 17.6115 7.96297 17.9346C8.26069 18.2577 8.66904 18.457 9.10692 18.4929L9.24992 18.4989H16.7499C17.1893 18.4989 17.6125 18.3336 17.9356 18.0359C18.2587 17.7382 18.458 17.3298 18.4939 16.8919L18.4999 16.7489V9.24892C18.4999 8.78479 18.3155 8.33967 17.9874 8.01148C17.6592 7.6833 17.2141 7.49892 16.7499 7.49892ZM12.9999 8.99992C13.1988 8.99992 13.3896 9.07894 13.5303 9.21959C13.6709 9.36024 13.7499 9.55101 13.7499 9.74992V12.2479H16.2499C16.4488 12.2479 16.6396 12.3269 16.7803 12.4676C16.9209 12.6082 16.9999 12.799 16.9999 12.9979C16.9999 13.1968 16.9209 13.3876 16.7803 13.5283C16.6396 13.6689 16.4488 13.7479 16.2499 13.7479H13.7499V16.2499C13.7499 16.4488 13.6709 16.6396 13.5303 16.7803C13.3896 16.9209 13.1988 16.9999 12.9999 16.9999C12.801 16.9999 12.6102 16.9209 12.4696 16.7803C12.3289 16.6396 12.2499 16.4488 12.2499 16.2499V13.7479H9.74992C9.55101 13.7479 9.36024 13.6689 9.21959 13.5283C9.07894 13.3876 8.99992 13.1968 8.99992 12.9979C8.99992 12.799 9.07894 12.6082 9.21959 12.4676C9.36024 12.3269 9.55101 12.2479 9.74992 12.2479H12.2499V9.74992C12.2499 9.55101 12.3289 9.36024 12.4696 9.21959C12.6102 9.07894 12.801 8.99992 12.9999 8.99992ZM13.5819 2.23292L13.6339 2.40992L14.3269 4.99792H12.7739L12.1859 2.79792C12.1265 2.57581 12.0239 2.36759 11.884 2.18515C11.7441 2.00271 11.5696 1.84963 11.3704 1.73466C11.1713 1.61969 10.9515 1.54508 10.7236 1.5151C10.4956 1.48512 10.264 1.50035 10.0419 1.55992L2.79792 3.50192C2.37505 3.61532 2.01004 3.8831 1.77493 4.25243C1.53982 4.62176 1.45169 5.0658 1.52792 5.49692L1.55992 5.64492L3.50192 12.8889C3.59301 13.2293 3.78474 13.5343 4.05202 13.7639C4.3193 13.9936 4.64968 14.1372 4.99992 14.1759V15.6819C4.34974 15.6432 3.72618 15.4101 3.21002 15.0128C2.69385 14.6156 2.30886 14.0725 2.10492 13.4539L2.05292 13.2779L0.111921 6.03292C-0.103076 5.2313 -0.00324276 4.37779 0.390949 3.64742C0.785141 2.91705 1.44382 2.36516 2.23192 2.10492L2.40992 2.05292L9.65392 0.111921C10.4555 -0.103076 11.3091 -0.00324276 12.0394 0.390949C12.7698 0.785141 13.3217 1.44382 13.5819 2.23192V2.23292Z" fill="white"/>
</svg>
