<svg width="20" height="20" viewBox="0 0 20 20" fill="none" xmlns="http://www.w3.org/2000/svg">
<path d="M10 2.5C9.62858 2.22143 9.18692 2.0518 8.72451 2.0101C8.26211 1.96841 7.79723 2.0563 7.38197 2.26393C6.9667 2.47157 6.61746 2.79073 6.37337 3.18567C6.12929 3.58061 6 4.03572 6 4.5V6H5C4.73478 6 4.48043 6.10536 4.29289 6.29289C4.10536 6.48043 4 6.73478 4 7V15C4 15.7957 4.31607 16.5587 4.87868 17.1213C5.44129 17.6839 6.20435 18 7 18H11.53L10.551 17H7C6.46957 17 5.96086 16.7893 5.58579 16.4142C5.21071 16.0391 5 15.5304 5 15V7H11V9.052C11.1678 9.01738 11.3387 8.99995 11.51 9H12V7H15V9.077C15.366 9.17 15.709 9.345 16 9.591V7C16 6.73478 15.8946 6.48043 15.7071 6.29289C15.5196 6.10536 15.2652 6 15 6H14V4.5C14 4.03572 13.8707 3.58061 13.6266 3.18567C13.3825 2.79073 13.0333 2.47157 12.618 2.26393C12.2028 2.0563 11.7379 1.96841 11.2755 2.0101C10.8131 2.0518 10.3714 2.22143 10 2.5ZM7 4.5C7 4.10218 7.15804 3.72065 7.43934 3.43934C7.72064 3.15804 8.10218 3 8.5 3C8.89782 3 9.27936 3.15804 9.56066 3.43934C9.84196 3.72065 10 4.10218 10 4.5V6H7V4.5ZM10.667 3.252C10.8929 3.10115 11.1555 3.01447 11.4269 3.00123C11.6982 2.98798 11.968 3.04866 12.2075 3.17679C12.4471 3.30492 12.6473 3.49569 12.7869 3.72874C12.9264 3.96178 13.0001 4.22836 13 4.5V6H11V4.5C11 4.046 10.879 3.62 10.667 3.252ZM10.432 15.449C10.1552 15.1664 10.0002 14.7866 10 14.391V11.511C9.99987 11.3126 10.0388 11.1162 10.1147 10.9328C10.1905 10.7495 10.3017 10.5829 10.4419 10.4426C10.5821 10.3023 10.7487 10.191 10.9319 10.115C11.1152 10.0391 11.3116 10 11.51 10H14.383C14.786 10 15.172 10.161 15.455 10.447L18.562 13.587C18.703 13.7294 18.8144 13.8984 18.8895 14.0842C18.9647 14.27 19.0022 14.4688 18.9999 14.6692C18.9976 14.8696 18.9554 15.0676 18.876 15.2516C18.7965 15.4355 18.6813 15.6019 18.537 15.741L15.59 18.578C15.3035 18.8541 14.9195 19.0058 14.5216 19C14.1238 18.9941 13.7443 18.8313 13.466 18.547L10.432 15.449ZM12 12.75C12 12.9489 12.079 13.1397 12.2197 13.2803C12.3603 13.421 12.5511 13.5 12.75 13.5C12.9489 13.5 13.1397 13.421 13.2803 13.2803C13.421 13.1397 13.5 12.9489 13.5 12.75C13.5 12.5511 13.421 12.3603 13.2803 12.2197C13.1397 12.079 12.9489 12 12.75 12C12.5511 12 12.3603 12.079 12.2197 12.2197C12.079 12.3603 12 12.5511 12 12.75Z" fill="white"/>
</svg>
